<svg version="1.1" xmlns="http://www.w3.org/2000/svg" width="24" height="24" viewBox="0 0 24 24">
    <path stroke="none" fill="#2e2e2e" d="M22.499 0c-.276 0-.5.224-.5.5v5.645c-1.811-2.007-4.241-3.339-6.975-3.784-3.193-.518-6.382.223-8.993 2.086-2.61 1.862-4.338 4.629-4.866 7.79-.529 3.161.206 6.34 2.067 8.948.749 1.049 1.651 1.963 2.683 2.718.089.066.192.097.295.097.153 0 .306-.071.403-.205.163-.223.115-.535-.108-.698-.944-.692-1.773-1.53-2.458-2.491-1.707-2.393-2.38-5.306-1.895-8.203.484-2.899 2.068-5.434 4.46-7.141 2.394-1.711 5.327-2.387 8.251-1.914 2.592.422 4.887 1.708 6.562 3.652h-5.926c-.276 0-.5.224-.5.5s.224.5.5.5h7l.059-.012.014-.003c.24-.037.427-.235.427-.485v-7c0-.276-.224-.5-.5-.5z" />
</svg>